# xmcd CD database file
#
# Track frame offsets:
#	150
#	18477
#	31922
#	56952
#	87885
#	106950
#	131187
#	151605
#	166640
#	189325
#	209270
#	225762
#	243397
#	263222
#	277460
#	297330
#	318280
#	337332
#
# Disc length: 4536 seconds
#
# Revision: 5
# Processed by: cddbd v1.5.2PL0 Copyright (c) Steve Scherf et al.
# Submitted via: CDex 1.51
#
DISCID=fe11b612
DTITLE=Tom Waits - Mule Variations
DYEAR=1900
DGENRE=Rock
TTITLE0=Big In Japan
TTITLE1=Lowside Of The Road
TTITLE2=Hold On
TTITLE3=Get Behind The Mule
TTITLE4=House Where Nobody Lives
TTITLE5=Cold Water
TTITLE6=Pony
TTITLE7=What's He Building?
TTITLE8=Black Market Baby
TTITLE9=Eyeball Kid
TTITLE10=Picture In A Frame
TTITLE11=Chocolate Jesus
TTITLE12=Georgia Lee
TTITLE13=Filipino Box Spring Hog
TTITLE14=Take It With Me
TTITLE15=Come On Up To The House
TTITLE16=Buzz Fledderjohn
TTITLE17=Big Face Money
EXTD=
EXTT0=
EXTT1=
EXTT2=
EXTT3=
EXTT4=
EXTT5=
EXTT6=
EXTT7=
EXTT8=
EXTT9=
EXTT10=
EXTT11=
EXTT12=
EXTT13=
EXTT14=
EXTT15=
EXTT16=
EXTT17=
PLAYORDER=
